<?xml version="1.0" encoding="utf-8"?><svg width="48" height="48" viewBox="0 0 48 48" xmlns="http://www.w3.org/2000/svg" xmlns:xlink="http://www.w3.org/1999/xlink"><svg width="24" height="24" viewBox="0 0 24 24" id="facebook" xmlns="http://www.w3.org/2000/svg"><path d="M9 8H6v4h3v12h5V12h3.642L18 8h-4V6.333C14 5.378 14.192 5 15.115 5H18V0h-3.808C10.596 0 9 1.583 9 4.615V8z"/></svg><svg width="24" height="24" viewBox="0 0 24 24" id="instagram" x="24" xmlns="http://www.w3.org/2000/svg"><path d="M21.231 0H2.769A2.77 2.77 0 0 0 0 2.769v18.46A2.77 2.77 0 0 0 2.769 24h18.463A2.769 2.769 0 0 0 24 21.229V2.769A2.769 2.769 0 0 0 21.231 0zM12 7.385a4.615 4.615 0 1 1 .002 9.23A4.615 4.615 0 0 1 12 7.385zm9 12.693a.923.923 0 0 1-.924.922H3.924A.923.923 0 0 1 3 20.078V10h1.897a7.56 7.56 0 0 0-.2.971c-.05.337-.081.679-.081 1.029a7.384 7.384 0 1 0 14.768 0c0-.35-.031-.692-.081-1.028a7.56 7.56 0 0 0-.2-.971H21v10.077zm0-13.98a.924.924 0 0 1-.924.923h-2.174a.923.923 0 0 1-.923-.923V3.923c0-.51.412-.923.923-.923h2.174c.511 0 .924.413.924.923v2.175z" fill-rule="evenodd" clip-rule="evenodd"/></svg><svg width="24" height="24" viewBox="0 0 24 24" id="pinterest" y="24" xmlns="http://www.w3.org/2000/svg"><path d="M12 0C5.373 0 0 5.372 0 12c0 5.084 3.163 9.426 7.627 11.174-.105-.949-.2-2.405.042-3.441.218-.937 1.407-5.965 1.407-5.965s-.359-.719-.359-1.782c0-1.668.967-2.914 2.171-2.914 1.023 0 1.518.769 1.518 1.69 0 1.029-.655 2.568-.994 3.995-.283 1.194.599 2.169 1.777 2.169 2.133 0 3.772-2.249 3.772-5.495 0-2.873-2.064-4.882-5.012-4.882-3.414 0-5.418 2.561-5.418 5.207 0 1.031.397 2.138.893 2.738a.36.36 0 0 1 .083.345l-.333 1.36c-.053.22-.174.267-.402.161-1.499-.698-2.436-2.889-2.436-4.649 0-3.785 2.75-7.262 7.929-7.262 4.163 0 7.398 2.967 7.398 6.931 0 4.136-2.607 7.464-6.227 7.464-1.216 0-2.359-.631-2.75-1.378l-.748 2.853c-.271 1.043-1.002 2.35-1.492 3.146C9.57 23.812 10.763 24 12 24c6.627 0 12-5.373 12-12 0-6.628-5.373-12-12-12z" fill-rule="evenodd" clip-rule="evenodd"/></svg><svg width="24" height="24" viewBox="0 0 24 24" id="twitter" x="24" y="24" xmlns="http://www.w3.org/2000/svg"><path d="M24 4.557a9.83 9.83 0 0 1-2.828.775 4.932 4.932 0 0 0 2.165-2.724 9.864 9.864 0 0 1-3.127 1.195 4.916 4.916 0 0 0-3.594-1.555c-3.179 0-5.515 2.966-4.797 6.045A13.978 13.978 0 0 1 1.671 3.149a4.93 4.93 0 0 0 1.523 6.574 4.903 4.903 0 0 1-2.229-.616c-.054 2.281 1.581 4.415 3.949 4.89a4.935 4.935 0 0 1-2.224.084 4.928 4.928 0 0 0 4.6 3.419A9.9 9.9 0 0 1 0 19.54a13.94 13.94 0 0 0 7.548 2.212c9.142 0 14.307-7.721 13.995-14.646A10.025 10.025 0 0 0 24 4.557z"/></svg></svg>